<svg xmlns="http://www.w3.org/2000/svg" viewBox="0 0 332.1 436.72"><g id="Ebene_2" data-name="Ebene 2"><g id="Ebene_1-2" data-name="Ebene 1"><path d="M319,101.41a166.5,166.5,0,1,0,13.06,64.64A165.44,165.44,0,0,0,319,101.41ZM187.86,301.8V278.29a3.22,3.22,0,0,0-3.22-3.21H147.46a3.22,3.22,0,0,0-3.22,3.21V301.8C78.77,291.32,28.58,234.43,28.58,166.05S78.77,40.78,144.24,30.31v23.5A3.21,3.21,0,0,0,147.46,57h37.18a3.21,3.21,0,0,0,3.22-3.21V30.31c65.47,10.48,115.66,67.36,115.66,135.74S253.33,291.32,187.86,301.8Z"/><circle cx="95.02" cy="166.05" r="26.87"/><circle cx="237.08" cy="166.05" r="26.87"/><path d="M56.73,422.81a4.92,4.92,0,0,0-1.87-4.1,23.16,23.16,0,0,0-6.54-3,63.14,63.14,0,0,1-7.66-3Q31,407.88,31,399.57a11.69,11.69,0,0,1,2.41-7.3,15.58,15.58,0,0,1,6.82-4.92,26.59,26.59,0,0,1,9.91-1.76,23.3,23.3,0,0,1,9.62,1.91A15.31,15.31,0,0,1,66.37,393,14.22,14.22,0,0,1,68.72,401h-12a6,6,0,0,0-1.86-4.72,7.3,7.3,0,0,0-5-1.67,8.15,8.15,0,0,0-5.08,1.42,4.17,4.17,0,0,0,.19,7.07,25.66,25.66,0,0,0,7.21,3.21,44.26,44.26,0,0,1,8.48,3.58q8.06,4.65,8.06,12.81A12.16,12.16,0,0,1,63.8,433q-4.92,3.72-13.5,3.72a26.72,26.72,0,0,1-10.95-2.17A16.57,16.57,0,0,1,32,428.61a15.53,15.53,0,0,1-2.48-8.7h12c0,2.66.69,4.63,2.06,5.89s3.62,1.9,6.72,1.9a7.76,7.76,0,0,0,4.7-1.28A4.25,4.25,0,0,0,56.73,422.81Z"/><path d="M115.14,419.19a18.3,18.3,0,0,1-2.8,9.18,17,17,0,0,1-7.2,6.17,24.61,24.61,0,0,1-10.58,2.18q-9.81,0-15.45-6.39t-5.64-18.05v-2.46A30.11,30.11,0,0,1,76,397a19.31,19.31,0,0,1,7.33-8.47,20.4,20.4,0,0,1,11.08-3q9,0,14.56,4.76t6.25,13.15h-12c-.09-3-.86-5.21-2.29-6.53s-3.62-2-6.56-2a7.16,7.16,0,0,0-6.57,3.35q-2.08,3.35-2.18,10.69v3.52q0,8,2,11.39c1.33,2.28,3.62,3.41,6.88,3.41a9.27,9.27,0,0,0,6.33-1.94c1.45-1.3,2.23-3.36,2.32-6.19Z"/><path d="M162.41,436H150.48V415.26H132.81V436h-12V386.27h12V406h17.67V386.27h11.93Z"/><path d="M209,386.27v32.58a18.72,18.72,0,0,1-2.36,9.58,15.2,15.2,0,0,1-6.77,6.17,23.72,23.72,0,0,1-10.42,2.12q-9.09,0-14.32-4.71t-5.33-12.92V386.27h12.06v33.06q.21,8.16,7.59,8.16a7.35,7.35,0,0,0,5.64-2.05c1.28-1.36,1.91-3.59,1.91-6.66V386.27Z"/><path d="M233.44,417.51l-4.93,5.4V436h-12V386.27h12v22l4.17-6.33,10.74-15.62h14.83l-16.82,22L258.25,436H244Z"/><path d="M302.38,412.18a29.5,29.5,0,0,1-2.7,12.89A19.94,19.94,0,0,1,292,433.7a21.31,21.31,0,0,1-11.33,3,21.65,21.65,0,0,1-11.28-2.92,19.87,19.87,0,0,1-7.67-8.36A28.39,28.39,0,0,1,258.83,413v-2.8a29.49,29.49,0,0,1,2.68-12.91,20,20,0,0,1,7.69-8.63,21.51,21.51,0,0,1,11.4-3,21.25,21.25,0,0,1,11.28,3,20.19,20.19,0,0,1,7.71,8.56,28.79,28.79,0,0,1,2.79,12.73Zm-12.21-2.08q0-7.43-2.47-11.27a8,8,0,0,0-7.1-3.84q-9,0-9.53,13.53l0,3.66q0,7.32,2.43,11.25a7.94,7.94,0,0,0,7.21,3.93,7.85,7.85,0,0,0,7-3.86q2.46-3.87,2.49-11.11Z"/></g></g></svg>