<svg xmlns="http://www.w3.org/2000/svg" viewBox="0 0 317.27 450.2"><g id="Ebene_2" data-name="Ebene 2"><g id="Ebene_1-2" data-name="Ebene 1"><path d="M317.27,158.81C317.27,71.1,246.24,0,158.63,0S0,71.1,0,158.81A158.77,158.77,0,0,0,141.52,316.7v28.87h34.23V316.7A158.77,158.77,0,0,0,317.27,158.81ZM158.63,290.51a131.7,131.7,0,1,1,131.55-131.7A131.62,131.62,0,0,1,158.63,290.51Z"/><path d="M224.84,204.17c-18.17,0-32.11-14.18-32-32.53a32,32,0,0,1,32.25-31.8c18,0,32.12,14.4,32,32.68C257,190.31,242.85,204.19,224.84,204.17ZM224.67,193A21,21,0,1,0,204,171.78,21.11,21.11,0,0,0,224.67,193Z"/><path d="M151,94.83c0,18.29-14.09,32.22-32.37,32a31.91,31.91,0,0,1-31.89-32.1,32.41,32.41,0,0,1,32.61-32.2A31.83,31.83,0,0,1,151,94.83Zm-11.18-.33c-.1-11.4-9.92-21.09-21.13-20.86S97.73,84,97.89,95.08s10.19,20.92,21.36,20.74A21,21,0,0,0,139.79,94.5Z"/><path d="M230.13,94.53c.07,18.57-13.55,32.36-31.93,32.34A32.22,32.22,0,0,1,165.81,95.1c-.3-17.51,14.72-32.58,32.46-32.56C216.22,62.57,230.06,76.47,230.13,94.53Zm-11,.47a21.4,21.4,0,0,0-20.68-21.38c-10.86-.16-21.2,10-21.4,21s9.83,21.07,21,21.22A21.07,21.07,0,0,0,219.11,95Z"/><path d="M92,204.17a31.64,31.64,0,0,1-31.86-32,32.05,32.05,0,1,1,64.1-.24C124.37,190.16,110.3,204.2,92,204.17ZM92.47,193c11.37-.08,21-9.89,20.83-21.14S103.19,150.91,92,151s-21.1,10.3-20.89,21.29A21.32,21.32,0,0,0,92.47,193Z"/><path d="M127.7,233.45C127.64,215.54,141.13,202,159,202c17.58,0,31,13.31,31.13,30.94A31.36,31.36,0,0,1,159.18,265C142,265.24,127.76,251,127.7,233.45Zm51.24.09a19.87,19.87,0,0,0-19.83-20.33,20.07,20.07,0,0,0-20.31,19.94c-.11,10.93,9.11,20.45,19.92,20.58S178.87,244.59,178.94,233.54Z"/><path d="M58.2,432.66a18.18,18.18,0,0,1-2.81,9.18A16.94,16.94,0,0,1,48.2,448a24.49,24.49,0,0,1-10.58,2.19q-9.81,0-15.45-6.4t-5.64-18V423.3a30.05,30.05,0,0,1,2.55-12.8A19.22,19.22,0,0,1,26.41,402a20.48,20.48,0,0,1,11.07-3q9.06,0,14.56,4.77t6.26,13.14h-12q-.13-4.54-2.28-6.53t-6.57-2a7.17,7.17,0,0,0-6.56,3.35q-2.09,3.35-2.19,10.7V426q0,8,2,11.38t6.89,3.42c2.76,0,4.86-.65,6.32-1.95s2.23-3.36,2.33-6.19Z"/><path d="M94.73,428.39H75.87v11.89H98.15v9.23H63.87V399.75H98.22V409H75.87V419.5H94.73Z"/><path d="M133.9,428.39H115v11.89h22.28v9.23H103V399.75h34.35V409H115V419.5H133.9Z"/><path d="M164.19,432.49H143.64V423.6h20.55Z"/><path d="M192.18,431.91h-6.49v17.6h-12V399.75h19.58q8.85,0,13.85,3.92t5,11.1a16,16,0,0,1-2.11,8.6,14.85,14.85,0,0,1-6.58,5.53L213.81,449v.51H201Zm-6.49-9.23h7.58a6.82,6.82,0,0,0,5.15-1.8,7,7,0,0,0,1.72-5,7,7,0,0,0-1.74-5.05,6.76,6.76,0,0,0-5.13-1.84h-7.58Z"/><path d="M261.5,425.65a29.36,29.36,0,0,1-2.7,12.89,19.94,19.94,0,0,1-7.68,8.63,21.32,21.32,0,0,1-11.33,3,21.65,21.65,0,0,1-11.28-2.93,19.91,19.91,0,0,1-7.67-8.35A28.43,28.43,0,0,1,218,426.44v-2.8a29.49,29.49,0,0,1,2.68-12.91,20,20,0,0,1,7.69-8.63,21.6,21.6,0,0,1,11.4-3,21.34,21.34,0,0,1,11.28,3,20.24,20.24,0,0,1,7.71,8.56,28.82,28.82,0,0,1,2.79,12.73Zm-12.21-2.08q0-7.41-2.47-11.26a8,8,0,0,0-7.1-3.85q-9,0-9.53,13.54l0,3.65q0,7.32,2.43,11.25a7.94,7.94,0,0,0,7.21,3.93,7.85,7.85,0,0,0,7-3.86q2.46-3.87,2.49-11.11Z"/><path d="M303.84,409H288.91v40.5h-12V409H262.25v-9.26h41.59Z"/></g></g></svg>