<svg xmlns="http://www.w3.org/2000/svg" viewBox="0 0 360.06 577.36"><g id="Ebene_2" data-name="Ebene 2"><g id="Ebene_1-2" data-name="Ebene 1"><path d="M95,179.94a34.22,34.22,0,0,1,.21-68.43A34.22,34.22,0,1,1,95,179.94Zm.09-55.85a21.7,21.7,0,0,0-21.91,21.79A22.28,22.28,0,0,0,94.9,167.74a21.87,21.87,0,0,0,21.94-21.83A21.39,21.39,0,0,0,95.1,124.09Z"/><path d="M214.12,145.87a33.69,33.69,0,0,1-34.19,34.06,34.21,34.21,0,1,1,34.19-34.06Zm-33.91-21.78c-12.41,0-21.91,9.37-21.91,21.64a21.83,21.83,0,0,0,21.76,22A22.34,22.34,0,0,0,202,145.67,21.73,21.73,0,0,0,180.21,124.09Z"/><path d="M265.1,179.92a33.76,33.76,0,0,1-34.25-33.64c-.06-19.22,14.87-34.66,33.61-34.77a34,34,0,0,1,34.63,33.75C299.19,164.8,284.44,179.84,265.1,179.92ZM265,124.09A21.94,21.94,0,0,0,243,145.85c.05,11.79,10.34,22,22.16,21.89,11.63-.06,21.72-10.11,21.91-21.8C287.2,134.08,277.16,124.1,265,124.09Z"/><path d="M137.57,255.92a32.84,32.84,0,0,1-33.2-33.52,33.36,33.36,0,0,1,33.28-33.3c18.31,0,33.68,15.36,33.6,33.59A33.24,33.24,0,0,1,137.57,255.92Zm21.09-33.45a20.76,20.76,0,0,0-21.07-20.77,21.17,21.17,0,0,0-21,21,21.52,21.52,0,0,0,21,21.14A21.22,21.22,0,0,0,158.66,222.47Z"/><path d="M222.42,255.92A32.86,32.86,0,0,1,189,222.6a33.35,33.35,0,1,1,66.7-.11A32.89,32.89,0,0,1,222.42,255.92Zm.08-54.23a21.25,21.25,0,0,0-21.34,20.75c-.26,11.28,9.81,21.39,21.27,21.37a21.56,21.56,0,0,0,21.1-21.11A21.14,21.14,0,0,0,222.5,201.69Z"/><path d="M162.15,82.8a24.5,24.5,0,1,1-49,.15C113,69.67,124.5,58.22,137.81,58.3A24.8,24.8,0,0,1,162.15,82.8Zm-7.29.62c.12-9.71-7.41-17.69-16.82-17.83a17.26,17.26,0,1,0-.7,34.51C146.84,100.2,154.75,92.68,154.86,83.42Z"/><path d="M198.11,82.69a24.27,24.27,0,1,1,24.35,24.7C208.77,107.45,198.08,96.61,198.11,82.69ZM222,100.1a17.46,17.46,0,0,0,17.74-17c.21-9.07-7.83-17.32-17-17.46a17.25,17.25,0,1,0-.74,34.5Z"/><path d="M286.06,299.68H251.61c69.09-29.83,114.45-102.6,107.81-179.28a181.85,181.85,0,0,0-33.21-90.94c-7-9.94-14.93-18.65-26.59-23.28A79.55,79.55,0,0,0,270.2.06Q225.13,0,180.07,0c-28.74,0-57.48-.11-86.23.09A105.19,105.19,0,0,0,74.12,2C62.5,4.36,51.18,8.46,43.5,17.77,3.11,66.69-9.65,122.37,7.31,183.42A177.27,177.27,0,0,0,108.78,299.68H74A70.52,70.52,0,0,0,3.68,370v32.42A70.53,70.53,0,0,0,74,472.74H286.06a70.53,70.53,0,0,0,70.32-70.32V370A70.52,70.52,0,0,0,286.06,299.68ZM32.18,170.52c-10.57-46.25-.92-88.8,27.66-126.72,8.27-11,20.53-15.46,33.75-17.28a100.92,100.92,0,0,1,13.48-.63q36.8-.09,73.6,0,38.6,0,77.19,0c20.5,0,36.68,7.8,48.22,25.42,19,29,27.82,60.65,25.73,95.18-4.1,67.86-55.3,125.88-122.2,138.87C128.9,301,50.48,250.63,32.18,170.52Zm295.74,228a51.12,51.12,0,0,1-51,51H83.11a51.13,51.13,0,0,1-51-51V373.88a51.12,51.12,0,0,1,51-51H277a51.12,51.12,0,0,1,51,51Z"/><path d="M250.17,427.93c-21.8.86-44-16.56-44.54-44.06-.44-24.4,20-44.39,44.37-44.41a44.62,44.62,0,0,1,44.64,44.23C294.76,408,274.78,427.89,250.17,427.93ZM281.24,384a31,31,0,0,0-30.56-31.12c-17.8-.07-31.8,13.57-31.79,31,0,16.88,14.64,31.45,31.38,31.26S281.18,400.68,281.24,384Z"/><path d="M153.92,384.08c-.1,24.95-19.37,44-44.41,43.85A44,44,0,0,1,65.42,383.5c.07-24.62,20.14-44.2,45.15-44C134.7,339.61,154,359.49,153.92,384.08Zm-75-.15c0,17,14.48,31.5,31.19,31.21S141,400.48,141.13,384c.17-16.82-14.19-31.06-31.31-31.07A30.48,30.48,0,0,0,78.87,383.93Z"/><path d="M156.21,559.83a18.24,18.24,0,0,1-2.8,9.17,16.9,16.9,0,0,1-7.2,6.17,24.46,24.46,0,0,1-10.58,2.19q-9.81,0-15.45-6.39t-5.64-18.05v-2.46a30.08,30.08,0,0,1,2.55-12.8,19.33,19.33,0,0,1,7.33-8.48,20.49,20.49,0,0,1,11.08-3q9,0,14.56,4.77t6.25,13.14h-12c-.09-3-.86-5.2-2.29-6.53s-3.63-2-6.56-2a7.18,7.18,0,0,0-6.57,3.35q-2.09,3.36-2.18,10.7v3.52q0,8,2,11.38c1.34,2.28,3.63,3.42,6.89,3.42q4.14,0,6.33-2c1.45-1.3,2.23-3.36,2.32-6.18Z"/><path d="M202.15,559.83a18.15,18.15,0,0,1-2.81,9.17,16.87,16.87,0,0,1-7.19,6.17,24.49,24.49,0,0,1-10.58,2.19q-9.81,0-15.45-6.39t-5.64-18.05v-2.46a30.08,30.08,0,0,1,2.55-12.8,19.27,19.27,0,0,1,7.33-8.48,20.48,20.48,0,0,1,11.07-3q9.06,0,14.56,4.77t6.26,13.14h-12c-.1-3-.86-5.2-2.29-6.53s-3.63-2-6.57-2a7.17,7.17,0,0,0-6.56,3.35q-2.09,3.36-2.19,10.7v3.52q0,8,2,11.38c1.34,2.28,3.63,3.42,6.89,3.42,2.76,0,4.86-.65,6.32-2s2.24-3.36,2.33-6.18Z"/><path d="M233.49,563.45a4.94,4.94,0,0,0-1.86-4.1,23.11,23.11,0,0,0-6.55-3,63.65,63.65,0,0,1-7.66-3q-9.67-4.74-9.67-13a11.69,11.69,0,0,1,2.41-7.3A15.56,15.56,0,0,1,217,528a26.39,26.39,0,0,1,9.91-1.76,23.27,23.27,0,0,1,9.62,1.91,15.36,15.36,0,0,1,6.62,5.45,14.28,14.28,0,0,1,2.36,8.09h-12a6,6,0,0,0-1.86-4.72,7.24,7.24,0,0,0-5-1.68,8.24,8.24,0,0,0-5.08,1.42,4.18,4.18,0,0,0,.19,7.08,25.66,25.66,0,0,0,7.21,3.21,44.94,44.94,0,0,1,8.48,3.57q8.07,4.65,8.07,12.82a12.15,12.15,0,0,1-4.93,10.25q-4.92,3.74-13.5,3.73a26.72,26.72,0,0,1-10.95-2.17,16.59,16.59,0,0,1-7.39-6,15.5,15.5,0,0,1-2.47-8.7h12c0,2.67.69,4.63,2.07,5.9s3.61,1.9,6.71,1.9a7.74,7.74,0,0,0,4.7-1.28A4.25,4.25,0,0,0,233.49,563.45Z"/></g></g></svg>