<svg xmlns="http://www.w3.org/2000/svg" viewBox="0 0 360.41 360.83"><defs><style>.cls-1{stroke:#fff;stroke-miterlimit:10;stroke-width:9px;}.cls-2{fill:#fff;}</style></defs><g id="Ebene_2" data-name="Ebene 2"><g id="Ebene_1-2" data-name="Ebene 1"><path d="M360.41,180.53A180.2,180.2,0,0,1,213,357.82c-96.46,17.92-190.91-46-209.44-142.21C-5,171.18,1.93,129,24.55,89.54a9,9,0,0,0,.88-5.84c-1.79-8.38-3.78-16.72-6-25-.76-2.82-.07-4.54,1.88-6.47Q37,36.71,52.57,20.93c1.92-1.95,3.46-2.32,6-1.21,5.6,2.47,11.46,4.37,17,7,4.59,2.19,8.19,1.73,12.64-.94C119.65,6.89,153.91-1.84,190.56.32a175.91,175.91,0,0,1,84.51,26.94,7.54,7.54,0,0,0,8,.63c6.6-2.87,13.37-5.33,20-8.15,2.41-1,4-.93,6,1.11,10.42,10.66,21.11,21.07,31.47,31.78a7.66,7.66,0,0,1,1.54,6c-1.81,8.68-4.22,17.24-6.07,25.91a9.92,9.92,0,0,0,.92,6.34C352.41,118.74,360.63,148.52,360.41,180.53Z"/><path class="cls-1" d="M180.62,26.19c-82.05-1-154.23,66.09-154.73,153.43C25.4,265,94.73,334.21,179.38,334.87c82.63.65,155-66.31,155.36-153.8C335.06,92.84,262.44,25.46,180.62,26.19Z"/><path class="cls-2" d="M56.32,178.27A52.08,52.08,0,0,1,109,125.81a52.76,52.76,0,0,1,52.43,52.6c-.06,29.17-23.84,52.6-53.43,52.44C79,230.7,55.55,206.25,56.32,178.27Zm19.17,0a33.43,33.43,0,0,0,33.27,33.49c18.15,0,33.6-15.58,33.41-33.62s-15.3-33.19-33.32-33.24A33.33,33.33,0,0,0,75.49,178.29Z"/><path class="cls-2" d="M304.11,178.39c0,29.52-23.3,52.62-53.09,52.46-26.51-.14-51.92-20.85-51.87-52.57.06-32.48,26.48-52.69,52.81-52.5A52.3,52.3,0,0,1,304.11,178.39Zm-19.18.12a33.34,33.34,0,0,0-33.16-33.59c-18.22,0-33.62,15.31-33.61,33.44,0,17.9,15.37,33.33,33.24,33.42A33.43,33.43,0,0,0,284.93,178.51Z"/><path class="cls-2" d="M179.59,237.05a36.55,36.55,0,0,1,36.66,37c-.14,19.62-15.23,36.54-37.13,36.74-20.36.18-36.72-16.83-36.69-37.2S158.92,237,179.59,237.05Zm0,6.49c-16.57-.06-30.5,13.68-30.59,30.16s13.84,30.38,30.35,30.4,30.44-13.92,30.39-30.36S195.85,243.6,179.57,243.54Z"/><polygon class="cls-2" points="196.74 256.31 193.43 253.69 179.78 270.97 166.51 253.59 163.15 256.15 177.08 274.39 162.65 292.68 165.96 295.3 179.73 277.86 193.3 295.63 196.66 293.06 182.43 274.43 196.74 256.31"/><path class="cls-2" d="M179.59,50a36.55,36.55,0,0,1,36.66,37c-.14,19.62-15.23,36.54-37.13,36.74-20.36.18-36.72-16.83-36.69-37.2S158.92,50,179.59,50Zm0,6.49C163,56.46,149.07,70.2,149,86.68s13.84,30.38,30.35,30.4,30.44-13.92,30.39-30.36S195.85,56.58,179.57,56.52Z"/><polygon class="cls-2" points="196.74 69.29 193.43 66.67 179.78 83.95 166.51 66.57 163.15 69.13 177.08 87.37 162.65 105.66 165.96 108.28 179.73 90.84 193.3 108.61 196.66 106.05 182.43 87.41 196.74 69.29"/></g></g></svg>