<svg xmlns="http://www.w3.org/2000/svg" viewBox="0 0 360.75 360.75"><g id="Ebene_2" data-name="Ebene 2"><g id="Ebene_1-2" data-name="Ebene 1"><path d="M328.3,0H32.45A32.45,32.45,0,0,0,0,32.45V328.3a32.45,32.45,0,0,0,32.45,32.45H328.3a32.44,32.44,0,0,0,32.45-32.45V32.45A32.45,32.45,0,0,0,328.3,0Zm10.12,312.22a26.24,26.24,0,0,1-26.2,26.2H48.54a26.23,26.23,0,0,1-26.2-26.2V48.54a26.23,26.23,0,0,1,26.2-26.2H312.22a26.23,26.23,0,0,1,26.2,26.2Z"/><path d="M307.14,33.49H53.61A20.15,20.15,0,0,0,33.49,53.61V307.14a20.15,20.15,0,0,0,20.12,20.13H307.14a20.15,20.15,0,0,0,20.13-20.13V53.61A20.15,20.15,0,0,0,307.14,33.49ZM194.4,307.1V279.36a2.1,2.1,0,0,0-2.09-2.1H168.45a2.1,2.1,0,0,0-2.1,2.1V307.1A127.61,127.61,0,0,1,57.08,212.92H68.6V147.83H57.08A127.6,127.6,0,0,1,166.35,53.66V81.4a2.1,2.1,0,0,0,2.1,2.09h23.86a2.1,2.1,0,0,0,2.09-2.09V53.66a127.59,127.59,0,0,1,109.27,94.17H292.15v65.09h11.52A127.6,127.6,0,0,1,194.4,307.1Z"/><circle cx="121.98" cy="180.38" r="19.64"/><circle cx="238.77" cy="180.38" r="19.64"/><circle cx="180.38" cy="180.38" r="6.55"/></g></g></svg>