<svg xmlns="http://www.w3.org/2000/svg" viewBox="0 0 360.06 469.74"><defs><style>.cls-1{fill:none;}.cls-1,.cls-3{stroke:#fff;stroke-miterlimit:10;stroke-width:9px;}.cls-2{fill:#fff;}</style></defs><g id="Ebene_2" data-name="Ebene 2"><g id="Ebene_1-2" data-name="Ebene 1"><path d="M286.06,296.68H258.17c65.38-31.5,107.67-102.05,101.25-176.28a181.85,181.85,0,0,0-33.21-90.94c-7-9.94-14.93-18.65-26.59-23.28A79.55,79.55,0,0,0,270.2.06Q225.13,0,180.07,0c-28.74,0-57.48-.11-86.23.09A105.19,105.19,0,0,0,74.12,2C62.5,4.36,51.18,8.46,43.5,17.77,3.11,66.69-9.65,122.37,7.31,183.42a177.2,177.2,0,0,0,94.83,113.26H74A70.52,70.52,0,0,0,3.68,367v32.42A70.53,70.53,0,0,0,74,469.74H286.06a70.53,70.53,0,0,0,70.32-70.32V367A70.52,70.52,0,0,0,286.06,296.68Z"/><rect class="cls-1" x="32.14" y="319.91" width="295.79" height="126.6" rx="50.97"/><path class="cls-2" d="M250.17,424.93c-21.8.86-44-16.56-44.54-44.06-.44-24.4,20-44.39,44.37-44.41a44.62,44.62,0,0,1,44.64,44.23C294.76,405,274.78,424.89,250.17,424.93ZM281.24,381a31,31,0,0,0-30.56-31.12c-17.8-.07-31.8,13.57-31.79,31,0,16.88,14.64,31.45,31.38,31.26S281.18,397.68,281.24,381Z"/><path class="cls-2" d="M153.92,381.08c-.1,24.95-19.37,44-44.41,43.85A44,44,0,0,1,65.42,380.5c.07-24.62,20.14-44.2,45.15-44C134.7,336.61,154,356.49,153.92,381.08Zm-75-.15c0,17,14.48,31.5,31.19,31.21S141,397.48,141.13,381c.17-16.82-14.19-31.06-31.31-31.07A30.48,30.48,0,0,0,78.87,380.93Z"/><path class="cls-3" d="M180.67,25.86q-36.79,0-73.6,0a100.92,100.92,0,0,0-13.48.63c-13.22,1.82-25.48,6.3-33.75,17.28C31.26,81.72,21.61,124.27,32.18,170.52,50.48,250.63,128.9,301,209.61,285.34c66.9-13,118.1-71,122.2-138.87,2.09-34.53-6.73-66.17-25.73-95.18-11.54-17.62-27.72-25.39-48.22-25.42Q219.27,25.81,180.67,25.86Z"/><path class="cls-2" d="M95,172.94a34.22,34.22,0,0,1,.21-68.43A34.22,34.22,0,1,1,95,172.94Zm.09-55.85a21.7,21.7,0,0,0-21.91,21.79A22.28,22.28,0,0,0,94.9,160.74a21.87,21.87,0,0,0,21.94-21.83A21.39,21.39,0,0,0,95.1,117.09Z"/><path class="cls-2" d="M214.12,138.87a33.69,33.69,0,0,1-34.19,34.06,34.21,34.21,0,1,1,34.19-34.06Zm-33.91-21.78c-12.41,0-21.91,9.37-21.91,21.64a21.83,21.83,0,0,0,21.76,22A22.34,22.34,0,0,0,202,138.67,21.73,21.73,0,0,0,180.21,117.09Z"/><path class="cls-2" d="M265.1,172.92a33.76,33.76,0,0,1-34.25-33.64c-.06-19.22,14.87-34.66,33.61-34.77a34,34,0,0,1,34.63,33.75C299.19,157.8,284.44,172.84,265.1,172.92ZM265,117.09A21.94,21.94,0,0,0,243,138.85c.05,11.79,10.34,22,22.16,21.89,11.63-.06,21.72-10.1,21.91-21.8C287.2,127.08,277.16,117.1,265,117.09Z"/><path class="cls-2" d="M137.57,248.92a32.84,32.84,0,0,1-33.2-33.52,33.36,33.36,0,0,1,33.28-33.3c18.31,0,33.68,15.36,33.6,33.59A33.24,33.24,0,0,1,137.57,248.92Zm21.09-33.45a20.76,20.76,0,0,0-21.07-20.77,21.17,21.17,0,0,0-21,21,21.52,21.52,0,0,0,21,21.14A21.22,21.22,0,0,0,158.66,215.47Z"/><path class="cls-2" d="M222.42,248.92A32.86,32.86,0,0,1,189,215.6a33.35,33.35,0,1,1,66.7-.11A32.89,32.89,0,0,1,222.42,248.92Zm.08-54.23a21.25,21.25,0,0,0-21.34,20.75c-.26,11.28,9.81,21.39,21.27,21.37a21.56,21.56,0,0,0,21.1-21.11A21.14,21.14,0,0,0,222.5,194.69Z"/><path class="cls-2" d="M162.15,75.8a24.5,24.5,0,1,1-49,.15C113,62.67,124.5,51.22,137.81,51.3A24.8,24.8,0,0,1,162.15,75.8Zm-7.29.62c.12-9.71-7.41-17.69-16.82-17.83a17.26,17.26,0,1,0-.7,34.51C146.84,93.2,154.75,85.68,154.86,76.42Z"/><path class="cls-2" d="M198.11,75.69a24.27,24.27,0,1,1,24.35,24.7C208.77,100.45,198.08,89.61,198.11,75.69ZM222,93.1a17.46,17.46,0,0,0,17.74-17c.21-9.07-7.83-17.32-17-17.46A17.25,17.25,0,1,0,222,93.1Z"/></g></g></svg>