<svg xmlns="http://www.w3.org/2000/svg" viewBox="0 0 332.1 332.1"><g id="Ebene_2" data-name="Ebene 2"><g id="Ebene_1-2" data-name="Ebene 1"><path d="M319,101.41a166.5,166.5,0,1,0,13.06,64.64A165.44,165.44,0,0,0,319,101.41ZM187.86,301.8V278.29a3.22,3.22,0,0,0-3.22-3.21H147.46a3.22,3.22,0,0,0-3.22,3.21V301.8C78.77,291.32,28.58,234.43,28.58,166.05S78.77,40.78,144.24,30.31v23.5A3.21,3.21,0,0,0,147.46,57h37.18a3.21,3.21,0,0,0,3.22-3.21V30.31c65.47,10.48,115.66,67.36,115.66,135.74S253.33,291.32,187.86,301.8Z"/><circle cx="95.02" cy="166.05" r="26.87"/><circle cx="237.08" cy="166.05" r="26.87"/></g></g></svg>