<svg xmlns="http://www.w3.org/2000/svg" viewBox="0 0 360.75 547.06"><g id="Ebene_2" data-name="Ebene 2"><g id="Ebene_1-2" data-name="Ebene 1"><path d="M126.1,79.57C146,80.68,163.73,95,163.86,117.74c.13,21.67-16.46,37.26-37.67,38.09-20.17.78-38.31-17.74-38.39-38S105.87,79.55,126.1,79.57Zm-.44,61.67c13.12,0,23.66-10.12,23.74-22.9.09-13.52-10.37-24.27-23.53-24.18s-23.94,11-23.78,23.75A23.73,23.73,0,0,0,125.66,141.24Z"/><path d="M239.81,79.55c19.86,1.1,37.63,15.39,37.76,38.17.12,21.67-16.47,37.26-37.67,38.08-20.17.79-38.31-17.73-38.4-38S219.58,79.53,239.81,79.55Zm-.44,61.66c13.12,0,23.65-10.11,23.74-22.89.08-13.53-10.37-24.27-23.54-24.19-13,.09-23.94,11-23.77,23.75A23.72,23.72,0,0,0,239.37,141.21Z"/><path d="M180.86,230.8c19.86,1.1,37.63,15.39,37.76,38.17.12,21.67-16.47,37.26-37.67,38.08-20.17.79-38.31-17.73-38.4-38S160.63,230.78,180.86,230.8Zm-.44,61.66c13.12.05,23.65-10.11,23.74-22.89.08-13.53-10.37-24.27-23.54-24.19-13,.09-23.94,11-23.77,23.75A23.72,23.72,0,0,0,180.42,292.46Z"/><path d="M93.85,187.39A26.85,26.85,0,0,1,120.53,214c0,14.3-12.28,27.19-26.71,26.8-14.7-.41-26.08-11-26.85-26.79C66.29,200.15,79.59,187.43,93.85,187.39ZM76.33,213.88a17.3,17.3,0,0,0,17.42,17.67,17.82,17.82,0,0,0,18-17.8,18.09,18.09,0,0,0-17.89-17.58A17.62,17.62,0,0,0,76.33,213.88Z"/><path d="M271.63,187.39A26.84,26.84,0,0,1,298.31,214c0,14.3-12.28,27.19-26.71,26.8-14.69-.41-26.08-11-26.85-26.79C244.08,200.15,257.37,187.43,271.63,187.39Zm-17.52,26.49a17.3,17.3,0,0,0,17.43,17.67,17.83,17.83,0,0,0,18-17.8,18.09,18.09,0,0,0-17.89-17.58A17.63,17.63,0,0,0,254.11,213.88Z"/><path d="M286.41,374H211.55c0-4,.08-7.94-.08-11.86-.13-3.21.77-4.37,4.22-5.1,97.95-20.81,159.87-112.3,142-209.56C340.44,53.58,251.94-11,157.37,1.57,117.74,6.85,83,23.14,54.79,51.6,7.59,99.21-10.2,156.69,5.66,221.72,23.59,295.2,72.14,339.69,145.57,357c3.51.83,4.21,2.1,4.11,5.2-.14,3.9-.1,7.8-.07,11.77H74.34A70.53,70.53,0,0,0,4,444.32v32.42a70.53,70.53,0,0,0,70.32,70.32H286.41a70.53,70.53,0,0,0,70.32-70.32V444.32A70.53,70.53,0,0,0,286.41,374ZM31.18,177.24C32.7,98.51,98.78,29.79,181,31.27c81.12-1.7,151.23,67.46,149.71,152.4-1.4,78.6-67.63,148.78-153.91,146.76C99.29,328.63,29.53,263.09,31.18,177.24ZM328.27,472.85a51.12,51.12,0,0,1-51,51H83.46a51.12,51.12,0,0,1-51-51V448.2a51.13,51.13,0,0,1,51-51H277.3a51.12,51.12,0,0,1,51,51Z"/><path d="M250.52,502.25c-21.8.86-44.05-16.56-44.55-44.06-.43-24.4,20-44.39,44.37-44.41A44.63,44.63,0,0,1,295,458C295.11,482.33,275.12,502.21,250.52,502.25Zm31.06-43.91A31,31,0,0,0,251,427.22c-17.81-.08-31.81,13.57-31.79,31,0,16.88,14.63,31.45,31.38,31.26S281.52,475,281.58,458.34Z"/><path d="M154.26,458.4c-.1,25-19.36,44-44.41,43.85a44,44,0,0,1-44.08-44.43c.06-24.62,20.13-44.2,45.15-44C135.05,413.93,154.35,433.81,154.26,458.4Zm-75-.15c0,17,14.47,31.5,31.19,31.21s30.9-14.66,31.07-31.17c.17-16.82-14.19-31.07-31.32-31.07A30.47,30.47,0,0,0,79.22,458.25Z"/></g></g></svg>