<svg xmlns="http://www.w3.org/2000/svg" viewBox="0 0 288.51 313.89"><defs><style>.cls-1{fill:#fff;}</style></defs><g id="Ebene_2" data-name="Ebene 2"><g id="Ebene_1-2" data-name="Ebene 1"><path class="cls-1" d="M202.12,99a22.05,22.05,0,0,1,22.3,22.7c-.19,11.9-11.43,23-23,22.74S178.57,132.57,178.78,121C179,108.71,189.43,98.87,202.12,99Z"/><path class="cls-1" d="M85.74,99c12.85.15,22.21,9.86,22,22.82-.19,12.21-11.11,23-22.88,22.63C73.27,144.06,62,132.35,62.22,121,62.5,108.94,73.31,98.84,85.74,99Z"/><path d="M288.51,144.25A144.26,144.26,0,1,0,128.69,287.67v26.22h31.13V287.67A144.29,144.29,0,0,0,288.51,144.25ZM144.25,263.87A119.62,119.62,0,1,1,263.87,144.25,119.62,119.62,0,0,1,144.25,263.87Z"/><path d="M89.88,90.76a30.94,30.94,0,1,0,30.94,30.94A30.94,30.94,0,0,0,89.88,90.76Zm0,51.49a20.55,20.55,0,1,1,20.55-20.55A20.55,20.55,0,0,1,89.88,142.25Z"/><path d="M201.6,90.76a30.94,30.94,0,1,0,31,30.94A30.94,30.94,0,0,0,201.6,90.76Zm0,51.49a20.55,20.55,0,1,1,20.55-20.55A20.55,20.55,0,0,1,201.6,142.25Z"/><path d="M145.74,172.59a30.95,30.95,0,1,0,30.94,30.95A30.95,30.95,0,0,0,145.74,172.59Zm0,51.49a20.55,20.55,0,1,1,20.55-20.54A20.55,20.55,0,0,1,145.74,224.08Z"/></g></g></svg>