<svg xmlns="http://www.w3.org/2000/svg" viewBox="0 0 317.27 345.57"><g id="Ebene_2" data-name="Ebene 2"><g id="Ebene_1-2" data-name="Ebene 1"><path d="M317.27,158.81C317.27,71.1,246.24,0,158.63,0S0,71.1,0,158.81A158.77,158.77,0,0,0,141.52,316.7v28.87h34.23V316.7A158.77,158.77,0,0,0,317.27,158.81ZM158.63,290.51a131.7,131.7,0,1,1,131.55-131.7A131.62,131.62,0,0,1,158.63,290.51Z"/><path d="M224.84,204.17c-18.17,0-32.11-14.18-32-32.53a32,32,0,0,1,32.25-31.8c18,0,32.12,14.4,32,32.68C257,190.31,242.85,204.19,224.84,204.17ZM224.67,193A21,21,0,1,0,204,171.78,21.11,21.11,0,0,0,224.67,193Z"/><path d="M151,94.83c0,18.29-14.09,32.22-32.37,32a31.91,31.91,0,0,1-31.89-32.1,32.41,32.41,0,0,1,32.61-32.2A31.83,31.83,0,0,1,151,94.83Zm-11.18-.33c-.1-11.4-9.92-21.09-21.13-20.86S97.73,84,97.89,95.08s10.19,20.92,21.36,20.74A21,21,0,0,0,139.79,94.5Z"/><path d="M230.13,94.53c.07,18.57-13.55,32.36-31.93,32.34A32.22,32.22,0,0,1,165.81,95.1c-.3-17.51,14.72-32.58,32.46-32.56C216.22,62.57,230.06,76.47,230.13,94.53Zm-11,.47a21.4,21.4,0,0,0-20.68-21.38c-10.86-.16-21.2,10-21.4,21s9.83,21.07,21,21.22A21.07,21.07,0,0,0,219.11,95Z"/><path d="M92,204.17a31.64,31.64,0,0,1-31.86-32,32.05,32.05,0,1,1,64.1-.24C124.37,190.16,110.3,204.2,92,204.17ZM92.47,193c11.37-.08,21-9.89,20.83-21.14S103.19,150.91,92,151s-21.1,10.3-20.89,21.29A21.32,21.32,0,0,0,92.47,193Z"/><path d="M127.7,233.45C127.64,215.54,141.13,202,159,202c17.58,0,31,13.31,31.13,30.94A31.36,31.36,0,0,1,159.18,265C142,265.24,127.76,251,127.7,233.45Zm51.24.09a19.87,19.87,0,0,0-19.83-20.33,20.07,20.07,0,0,0-20.31,19.94c-.11,10.93,9.11,20.45,19.92,20.58S178.87,244.59,178.94,233.54Z"/></g></g></svg>