<svg xmlns="http://www.w3.org/2000/svg" viewBox="0 0 360.06 314.22"><g id="Ebene_2" data-name="Ebene 2"><g id="Ebene_1-2" data-name="Ebene 1"><path d="M180.07,0q45.06,0,90.13,0a79.35,79.35,0,0,1,29.42,6.12c11.66,4.63,19.57,13.34,26.59,23.28a181.85,181.85,0,0,1,33.21,90.94C367,207.92,306.85,290.34,221,309.64,126.43,330.89,33.14,276.42,7.31,183.42c-17-61-4.2-116.73,36.19-165.65C51.18,8.46,62.5,4.36,74.12,2A105.19,105.19,0,0,1,93.84.12C122.59-.08,151.33,0,180.07,0ZM93.59,26.52c-13.22,1.82-25.48,6.3-33.75,17.28C31.26,81.72,21.61,124.27,32.18,170.52,50.48,250.63,128.9,301,209.61,285.34c66.9-13,118.1-71,122.2-138.87,2.09-34.53-6.73-66.17-25.73-95.18-11.54-17.62-27.72-25.39-48.22-25.42q-38.6-.06-77.19,0Z"/><path d="M95,179.94a34.22,34.22,0,0,1,.21-68.43A34.22,34.22,0,1,1,95,179.94Zm.09-55.85a21.7,21.7,0,0,0-21.91,21.79A22.28,22.28,0,0,0,94.9,167.74a21.87,21.87,0,0,0,21.94-21.83A21.39,21.39,0,0,0,95.1,124.09Z"/><path d="M214.12,145.87a33.69,33.69,0,0,1-34.19,34.06,34.21,34.21,0,1,1,34.19-34.06Zm-33.91-21.78c-12.41,0-21.91,9.37-21.91,21.64a21.83,21.83,0,0,0,21.76,22A22.34,22.34,0,0,0,202,145.67,21.73,21.73,0,0,0,180.21,124.09Z"/><path d="M265.1,179.92a33.76,33.76,0,0,1-34.25-33.64c-.06-19.22,14.87-34.66,33.61-34.77a34,34,0,0,1,34.63,33.75C299.19,164.8,284.44,179.84,265.1,179.92ZM265,124.09A21.94,21.94,0,0,0,243,145.85c.05,11.79,10.34,22,22.16,21.89,11.63-.06,21.72-10.11,21.91-21.8C287.2,134.08,277.16,124.1,265,124.09Z"/><path d="M137.57,255.92a32.84,32.84,0,0,1-33.2-33.52,33.36,33.36,0,0,1,33.28-33.3c18.31,0,33.68,15.36,33.6,33.59A33.24,33.24,0,0,1,137.57,255.92Zm21.09-33.45a20.76,20.76,0,0,0-21.07-20.77,21.17,21.17,0,0,0-21,21,21.52,21.52,0,0,0,21,21.14A21.22,21.22,0,0,0,158.66,222.47Z"/><path d="M222.42,255.92A32.86,32.86,0,0,1,189,222.6a33.35,33.35,0,1,1,66.7-.11A32.89,32.89,0,0,1,222.42,255.92Zm.08-54.23a21.25,21.25,0,0,0-21.34,20.75c-.26,11.28,9.81,21.39,21.27,21.37a21.56,21.56,0,0,0,21.1-21.11A21.14,21.14,0,0,0,222.5,201.69Z"/><path d="M162.15,82.8a24.5,24.5,0,1,1-49,.15C113,69.67,124.5,58.22,137.81,58.3A24.8,24.8,0,0,1,162.15,82.8Zm-7.29.62c.12-9.71-7.41-17.69-16.82-17.83a17.26,17.26,0,1,0-.7,34.51C146.84,100.2,154.75,92.68,154.86,83.42Z"/><path d="M198.11,82.69a24.27,24.27,0,1,1,24.35,24.7C208.77,107.45,198.08,96.61,198.11,82.69ZM222,100.1a17.46,17.46,0,0,0,17.74-17c.21-9.07-7.83-17.32-17-17.46a17.25,17.25,0,1,0-.74,34.5Z"/></g></g></svg>