<svg xmlns="http://www.w3.org/2000/svg" viewBox="0 0 360.41 474.92"><defs><style>.cls-1{stroke:#fff;stroke-miterlimit:10;stroke-width:9px;}.cls-2{fill:#fff;}</style></defs><g id="Ebene_2" data-name="Ebene 2"><g id="Ebene_1-2" data-name="Ebene 1"><path d="M360.41,180.53A180.2,180.2,0,0,1,213,357.82c-96.46,17.92-190.91-46-209.44-142.21C-5,171.18,1.93,129,24.55,89.54a9,9,0,0,0,.88-5.84c-1.79-8.38-3.78-16.72-6-25-.76-2.82-.07-4.54,1.88-6.47Q37,36.71,52.57,20.93c1.92-1.95,3.46-2.32,6-1.21,5.6,2.47,11.46,4.37,17,7,4.59,2.19,8.19,1.73,12.64-.94C119.65,6.89,153.91-1.84,190.56.32a175.91,175.91,0,0,1,84.51,26.94,7.54,7.54,0,0,0,8,.63c6.6-2.87,13.37-5.33,20-8.15,2.41-1,4-.93,6,1.11,10.42,10.66,21.11,21.07,31.47,31.78a7.66,7.66,0,0,1,1.54,6c-1.81,8.68-4.22,17.24-6.07,25.91a9.92,9.92,0,0,0,.92,6.34C352.41,118.74,360.63,148.52,360.41,180.53Z"/><path class="cls-1" d="M180.62,26.19c-82.05-1-154.23,66.09-154.73,153.43C25.4,265,94.73,334.21,179.38,334.87c82.63.65,155-66.31,155.36-153.8C335.06,92.84,262.44,25.46,180.62,26.19Z"/><path class="cls-2" d="M56.32,178.27A52.08,52.08,0,0,1,109,125.81a52.76,52.76,0,0,1,52.43,52.6c-.06,29.17-23.84,52.6-53.43,52.44C79,230.7,55.55,206.25,56.32,178.27Zm19.17,0a33.43,33.43,0,0,0,33.27,33.49c18.15,0,33.6-15.58,33.41-33.62s-15.3-33.19-33.32-33.24A33.33,33.33,0,0,0,75.49,178.29Z"/><path class="cls-2" d="M304.11,178.39c0,29.52-23.3,52.62-53.09,52.46-26.51-.14-51.92-20.85-51.87-52.57.06-32.48,26.48-52.69,52.81-52.5A52.3,52.3,0,0,1,304.11,178.39Zm-19.18.12a33.34,33.34,0,0,0-33.16-33.59c-18.22,0-33.62,15.31-33.61,33.44,0,17.9,15.37,33.33,33.24,33.42A33.43,33.43,0,0,0,284.93,178.51Z"/><path class="cls-2" d="M179.59,237.05a36.55,36.55,0,0,1,36.66,37c-.14,19.62-15.23,36.54-37.13,36.74-20.36.18-36.72-16.83-36.69-37.2S158.92,237,179.59,237.05Zm0,6.49c-16.57-.06-30.5,13.68-30.59,30.16s13.84,30.38,30.35,30.4,30.44-13.92,30.39-30.36S195.85,243.6,179.57,243.54Z"/><polygon class="cls-2" points="196.74 256.31 193.43 253.69 179.78 270.97 166.51 253.59 163.15 256.15 177.08 274.39 162.65 292.68 165.96 295.3 179.73 277.86 193.3 295.63 196.66 293.06 182.43 274.43 196.74 256.31"/><path class="cls-2" d="M179.59,50a36.55,36.55,0,0,1,36.66,37c-.14,19.62-15.23,36.54-37.13,36.74-20.36.18-36.72-16.83-36.69-37.2S158.92,50,179.59,50Zm0,6.49C163,56.46,149.07,70.2,149,86.68s13.84,30.38,30.35,30.4,30.44-13.92,30.39-30.36S195.85,56.58,179.57,56.52Z"/><polygon class="cls-2" points="196.74 69.29 193.43 66.67 179.78 83.95 166.51 66.57 163.15 69.13 177.08 87.37 162.65 105.66 165.96 108.28 179.73 90.84 193.3 108.61 196.66 106.05 182.43 87.41 196.74 69.29"/><path d="M55.47,457.39a18.3,18.3,0,0,1-2.8,9.18,17,17,0,0,1-7.2,6.17,24.61,24.61,0,0,1-10.58,2.18q-9.81,0-15.45-6.39t-5.64-18V448a30.11,30.11,0,0,1,2.55-12.8,19.31,19.31,0,0,1,7.33-8.47,20.4,20.4,0,0,1,11.08-3q9,0,14.56,4.76t6.25,13.15h-12c-.09-3-.86-5.21-2.29-6.53s-3.63-2-6.56-2a7.17,7.17,0,0,0-6.57,3.34q-2.09,3.36-2.18,10.7v3.52q0,8,2,11.39c1.34,2.27,3.63,3.41,6.89,3.41q4.14,0,6.32-1.94c1.46-1.3,2.24-3.37,2.33-6.19Z"/><path d="M102.74,474.24H90.81V453.46H73.14v20.78h-12V424.47h12v19.76H90.81V424.47h11.93Z"/><path d="M139.21,464.94H122.77l-2.87,9.3H107.08l18.25-49.77h11.28L155,474.24H142.11Zm-13.57-9.26h10.7L131,438.42Z"/><path d="M158.62,474.24V424.47h16a23.61,23.61,0,0,1,11.86,3,21,21,0,0,1,8.22,8.45,25.44,25.44,0,0,1,3,12.22v2.29a25.7,25.7,0,0,1-2.88,12.25,21.16,21.16,0,0,1-8.14,8.48A23,23,0,0,1,175,474.24Zm12-40.5V465h4.17a9.34,9.34,0,0,0,7.93-3.67q2.76-3.68,2.77-10.92v-2.16q0-7.2-2.77-10.87a9.53,9.53,0,0,0-8.07-3.65Z"/><path d="M234.74,453.12H215.87V465h22.29v9.23H203.88V424.47h34.35v9.27H215.87v10.49h18.87Z"/><path d="M258.8,424.47l11.11,34.63L281,424.47h15.79v49.77h-12V462.62l1.16-23.79-12,35.41H266l-12.07-35.45L255,462.62v11.62h-12V424.47Z"/><path d="M346.54,450.38a29.36,29.36,0,0,1-2.7,12.89,20,20,0,0,1-7.67,8.63,21.34,21.34,0,0,1-11.33,3A21.65,21.65,0,0,1,313.56,472a19.87,19.87,0,0,1-7.67-8.36A28.39,28.39,0,0,1,303,451.17v-2.8a29.49,29.49,0,0,1,2.68-12.91,19.94,19.94,0,0,1,7.69-8.63,22.77,22.77,0,0,1,22.68,0,20.31,20.31,0,0,1,7.71,8.56,28.65,28.65,0,0,1,2.78,12.73Zm-12.2-2.08q0-7.43-2.48-11.27a7.94,7.94,0,0,0-7.09-3.84q-9,0-9.54,13.53l0,3.66q0,7.32,2.43,11.25a8.44,8.44,0,0,0,14.22.07q2.46-3.87,2.49-11.11Z"/></g></g></svg>