<svg xmlns="http://www.w3.org/2000/svg" viewBox="0 0 360.75 474.84"><g id="Ebene_2" data-name="Ebene 2"><g id="Ebene_1-2" data-name="Ebene 1"><path d="M328.3,0H32.45A32.45,32.45,0,0,0,0,32.45V328.3a32.45,32.45,0,0,0,32.45,32.45H328.3a32.44,32.44,0,0,0,32.45-32.45V32.45A32.45,32.45,0,0,0,328.3,0Zm10.12,312.22a26.24,26.24,0,0,1-26.2,26.2H48.54a26.23,26.23,0,0,1-26.2-26.2V48.54a26.23,26.23,0,0,1,26.2-26.2H312.22a26.23,26.23,0,0,1,26.2,26.2Z"/><path d="M307.14,33.49H53.61A20.15,20.15,0,0,0,33.49,53.61V307.14a20.15,20.15,0,0,0,20.12,20.13H307.14a20.15,20.15,0,0,0,20.13-20.13V53.61A20.15,20.15,0,0,0,307.14,33.49ZM194.4,307.1V279.36a2.1,2.1,0,0,0-2.09-2.1H168.45a2.1,2.1,0,0,0-2.1,2.1V307.1A127.61,127.61,0,0,1,57.08,212.92H68.6V147.83H57.08A127.6,127.6,0,0,1,166.35,53.66V81.4a2.1,2.1,0,0,0,2.1,2.09h23.86a2.1,2.1,0,0,0,2.09-2.09V53.66a127.59,127.59,0,0,1,109.27,94.17H292.15v65.09h11.52A127.6,127.6,0,0,1,194.4,307.1Z"/><circle cx="121.98" cy="180.38" r="19.64"/><circle cx="238.77" cy="180.38" r="19.64"/><circle cx="180.38" cy="180.38" r="6.55"/><path d="M71.05,460.93a4.94,4.94,0,0,0-1.86-4.1,23.11,23.11,0,0,0-6.55-3,62.91,62.91,0,0,1-7.65-3q-9.68-4.75-9.67-13.06a11.69,11.69,0,0,1,2.41-7.3,15.68,15.68,0,0,1,6.81-4.92,26.64,26.64,0,0,1,9.92-1.76,23.18,23.18,0,0,1,9.62,1.92,15.19,15.19,0,0,1,6.61,5.45,14.25,14.25,0,0,1,2.36,8.08h-12a6,6,0,0,0-1.87-4.72,7.28,7.28,0,0,0-5-1.67,8.14,8.14,0,0,0-5.07,1.42,4.33,4.33,0,0,0-1.87,3.6,4.39,4.39,0,0,0,2,3.47,26,26,0,0,0,7.22,3.22A43.55,43.55,0,0,1,75,448.05q8.07,4.65,8.07,12.82a12.14,12.14,0,0,1-4.92,10.25q-4.92,3.72-13.5,3.72a26.74,26.74,0,0,1-11-2.17,16.42,16.42,0,0,1-7.38-5.94,15.53,15.53,0,0,1-2.48-8.7h12c0,2.66.69,4.63,2.07,5.89s3.62,1.9,6.72,1.9a7.76,7.76,0,0,0,4.7-1.28A4.24,4.24,0,0,0,71.05,460.93Z"/><path d="M129.47,457.31a18.18,18.18,0,0,1-2.81,9.18,16.94,16.94,0,0,1-7.19,6.17,24.46,24.46,0,0,1-10.58,2.18q-9.81,0-15.45-6.39t-5.64-18V448a30.05,30.05,0,0,1,2.55-12.8,19.22,19.22,0,0,1,7.33-8.48,20.39,20.39,0,0,1,11.07-3q9.06,0,14.56,4.77t6.26,13.14h-12q-.15-4.54-2.29-6.53t-6.57-2a7.15,7.15,0,0,0-6.56,3.35q-2.09,3.35-2.19,10.7v3.52q0,8,2,11.38c1.34,2.28,3.63,3.42,6.89,3.42,2.76,0,4.86-.65,6.32-1.95s2.24-3.36,2.33-6.19Z"/><path d="M176.74,474.16H164.81V453.38H147.14v20.78h-12V424.4h12v19.75h17.67V424.4h11.93Z"/><path d="M223.36,424.4V457a18.76,18.76,0,0,1-2.36,9.59,15.31,15.31,0,0,1-6.77,6.17,23.86,23.86,0,0,1-10.42,2.11q-9.09,0-14.32-4.71t-5.34-12.92V424.4h12.07v33.05c.14,5.44,2.66,8.17,7.59,8.17a7.38,7.38,0,0,0,5.64-2.05q1.91-2.06,1.91-6.67V424.4Z"/><path d="M247.76,455.64l-4.92,5.4v13.12h-12V424.4h12v21.94L247,440l10.73-15.62h14.84l-16.82,22,16.82,27.75H258.36Z"/><path d="M316.7,450.3a29.36,29.36,0,0,1-2.7,12.89,20,20,0,0,1-7.67,8.63,21.34,21.34,0,0,1-11.33,3,21.65,21.65,0,0,1-11.28-2.92,19.91,19.91,0,0,1-7.67-8.35,28.46,28.46,0,0,1-2.89-12.48v-2.8a29.49,29.49,0,0,1,2.68-12.91,19.94,19.94,0,0,1,7.69-8.63,21.6,21.6,0,0,1,11.4-3,21.36,21.36,0,0,1,11.28,3,20.37,20.37,0,0,1,7.71,8.56A28.68,28.68,0,0,1,316.7,448Zm-12.2-2.08q0-7.43-2.48-11.26a7.93,7.93,0,0,0-7.09-3.85q-9,0-9.54,13.54l0,3.65q0,7.32,2.43,11.25a8.44,8.44,0,0,0,14.22.07q2.46-3.87,2.49-11.11Z"/></g></g></svg>