<svg xmlns="http://www.w3.org/2000/svg" viewBox="0 0 351.35 446.27"><defs><style>.cls-1{fill:#fff;}.cls-2{stroke:#fff;stroke-miterlimit:10;stroke-width:14.66px;}.cls-3{font-size:70px;font-family:Roboto-Black, Roboto;font-weight:800;}.cls-4{letter-spacing:0.01em;}.cls-5{letter-spacing:-0.01em;}</style></defs><g id="Ebene_2" data-name="Ebene 2"><g id="Ebene_1-2" data-name="Ebene 1"><path class="cls-1" d="M233.54,99a22.06,22.06,0,0,1,22.31,22.7c-.19,11.9-11.43,23-23,22.74S210,132.57,210.21,121C210.44,108.71,220.85,98.87,233.54,99Z"/><path class="cls-1" d="M117.16,99c12.85.15,22.22,9.86,22,22.82-.19,12.21-11.11,23-22.88,22.63-11.61-.37-22.91-12.08-22.65-23.46C93.92,108.94,104.73,98.84,117.16,99Z"/><path d="M319.93,144.25A144.26,144.26,0,1,0,160.11,287.67v26.22h31.13V287.67A144.28,144.28,0,0,0,319.93,144.25Z"/><circle class="cls-2" cx="175.68" cy="144.25" r="119.62"/><path class="cls-1" d="M121.3,90.76a30.94,30.94,0,1,0,31,30.94A30.94,30.94,0,0,0,121.3,90.76Zm0,51.49a20.55,20.55,0,1,1,20.55-20.55A20.55,20.55,0,0,1,121.3,142.25Z"/><path class="cls-1" d="M233,90.76A30.94,30.94,0,1,0,264,121.7,30.95,30.95,0,0,0,233,90.76Zm0,51.49a20.55,20.55,0,1,1,20.54-20.55A20.55,20.55,0,0,1,233,142.25Z"/><path class="cls-1" d="M177.16,172.59a30.95,30.95,0,1,0,31,30.95A30.95,30.95,0,0,0,177.16,172.59Zm0,51.49a20.55,20.55,0,1,1,20.55-20.54A20.55,20.55,0,0,1,177.16,224.08Z"/><text class="cls-3" transform="translate(9.12 427.3)">CEE-B<tspan class="cls-4" x="200.91" y="0">L</tspan><tspan class="cls-5" x="239.5" y="0">A</tspan><tspan x="286.6" y="0">U</tspan></text></g></g></svg>