<svg xmlns="http://www.w3.org/2000/svg" viewBox="0 0 317.27 459.28"><defs><style>.cls-1{stroke:#fff;stroke-miterlimit:10;stroke-width:9px;}.cls-2{fill:#fff;}</style></defs><g id="Ebene_2" data-name="Ebene 2"><g id="Ebene_1-2" data-name="Ebene 1"><path d="M317.27,158.63A158.64,158.64,0,1,0,141.52,316.34v28.85h34.23V316.34A158.64,158.64,0,0,0,317.27,158.63Z"/><circle class="cls-1" cx="158.63" cy="158.63" r="131.55"/><path class="cls-2" d="M224.84,203.94c-18.17,0-32.11-14.17-32-32.49a32,32,0,0,1,32.25-31.77c18,0,32.12,14.38,32,32.65C257,190.1,242.85,204,224.84,203.94Zm-.17-11.17A21,21,0,1,0,204,171.59,21.11,21.11,0,0,0,224.67,192.77Z"/><path class="cls-2" d="M151,94.72c0,18.27-14.09,32.18-32.37,32A31.89,31.89,0,0,1,86.71,94.64a32.39,32.39,0,0,1,32.61-32.16A31.8,31.8,0,0,1,151,94.72Zm-11.18-.33c-.1-11.38-9.92-21.06-21.13-20.83S97.73,83.9,97.89,95s10.19,20.89,21.36,20.71A21,21,0,0,0,139.79,94.39Z"/><path class="cls-2" d="M230.13,94.42c.07,18.55-13.55,32.33-31.93,32.31A32.2,32.2,0,0,1,165.81,95c-.3-17.49,14.72-32.54,32.46-32.52C216.22,62.5,230.06,76.38,230.13,94.42Zm-11,.48a21.39,21.39,0,0,0-20.68-21.36c-10.86-.16-21.2,10-21.4,21s9.83,21,21,21.19A21.05,21.05,0,0,0,219.11,94.9Z"/><path class="cls-2" d="M92,203.94A31.62,31.62,0,0,1,60.18,172a32.05,32.05,0,1,1,64.1-.24C124.37,190,110.3,204,92,203.94Zm.43-11.17c11.37-.08,21-9.87,20.83-21.11s-10.11-20.92-21.3-20.8-21.1,10.29-20.89,21.27A21.3,21.3,0,0,0,92.47,192.77Z"/><path class="cls-2" d="M127.7,233.19c-.06-17.89,13.43-31.44,31.29-31.42,17.58,0,31,13.28,31.13,30.9a31.34,31.34,0,0,1-30.94,32C142,264.94,127.76,250.73,127.7,233.19Zm51.24.09A19.86,19.86,0,0,0,159.11,213a20.06,20.06,0,0,0-20.31,19.92c-.11,10.91,9.11,20.42,19.92,20.56S178.87,244.32,178.94,233.28Z"/><path d="M58.2,441.74a18.15,18.15,0,0,1-2.81,9.18,16.87,16.87,0,0,1-7.19,6.17,24.49,24.49,0,0,1-10.58,2.19q-9.81,0-15.45-6.39t-5.64-18.05v-2.46a30.08,30.08,0,0,1,2.55-12.8,19.27,19.27,0,0,1,7.33-8.48,20.48,20.48,0,0,1,11.07-3q9.06,0,14.56,4.77T58.3,426h-12c-.09-3-.85-5.2-2.28-6.53s-3.63-2-6.57-2a7.17,7.17,0,0,0-6.56,3.35q-2.09,3.34-2.19,10.7v3.52q0,8,2,11.38t6.89,3.42c2.76,0,4.86-.65,6.32-1.95s2.24-3.36,2.33-6.19Z"/><path d="M94.73,437.47H75.87v11.9H98.15v9.23H63.87V408.83H98.22v9.26H75.87v10.5H94.73Z"/><path d="M133.9,437.47H115v11.9h22.28v9.23H103V408.83h34.35v9.26H115v10.5H133.9Z"/><path d="M164.19,441.57H143.65v-8.88h20.54Z"/><path d="M192.18,441h-6.49V458.6h-12V408.83h19.58q8.85,0,13.85,3.93t5,11.09a16.11,16.11,0,0,1-2.11,8.61,14.91,14.91,0,0,1-6.58,5.53l10.39,20.09v.52H201Zm-6.49-9.23h7.58a6.86,6.86,0,0,0,5.15-1.79,8.21,8.21,0,0,0,0-10.08,6.75,6.75,0,0,0-5.13-1.83h-7.58Z"/><path d="M261.5,434.74a29.31,29.31,0,0,1-2.7,12.88,19.89,19.89,0,0,1-7.68,8.63,21.32,21.32,0,0,1-11.33,3,21.74,21.74,0,0,1-11.28-2.92,19.93,19.93,0,0,1-7.67-8.36A28.4,28.4,0,0,1,218,435.52v-2.8a29.59,29.59,0,0,1,2.68-12.9,20,20,0,0,1,7.69-8.63,22.8,22.8,0,0,1,22.68,0,20.21,20.21,0,0,1,7.71,8.57,28.76,28.76,0,0,1,2.79,12.73Zm-12.21-2.09q0-7.41-2.47-11.26a8,8,0,0,0-7.1-3.84q-9,0-9.53,13.53l0,3.66q0,7.31,2.43,11.24a7.94,7.94,0,0,0,7.21,3.93,7.83,7.83,0,0,0,7-3.86q2.46-3.85,2.49-11.11Z"/><path d="M303.84,418.09H288.91V458.6h-12V418.09H262.25v-9.26h41.59Z"/></g></g></svg>