<svg xmlns="http://www.w3.org/2000/svg" viewBox="0 0 362.11 446.52"><defs><style>.cls-1{stroke:#fff;stroke-miterlimit:10;stroke-width:9px;}.cls-2{fill:#fff;}.cls-3{font-size:70px;font-family:Roboto-Black, Roboto;font-weight:800;}.cls-4{letter-spacing:0.01em;}</style></defs><g id="Ebene_2" data-name="Ebene 2"><g id="Ebene_1-2" data-name="Ebene 1"><path d="M182.12,0q45.06,0,90.12,0a79.4,79.4,0,0,1,29.43,6.12c11.66,4.63,19.57,13.34,26.59,23.28a181.94,181.94,0,0,1,33.21,90.94C369,207.92,308.89,290.34,223,309.64,128.47,330.89,35.19,276.42,9.35,183.42c-17-61-4.19-116.73,36.19-165.65C53.23,8.46,64.55,4.36,76.16,2A105.3,105.3,0,0,1,95.89.12C124.63-.08,153.37,0,182.12,0Z"/><path class="cls-1" d="M95.64,26.52c-13.22,1.82-25.49,6.3-33.75,17.28C33.31,81.72,23.66,124.27,34.22,170.52,52.52,250.63,131,301,211.66,285.34c66.89-13,118.09-71,122.2-138.87,2.09-34.53-6.73-66.17-25.74-95.18C296.59,33.67,280.41,25.9,259.9,25.87q-38.58-.06-77.18,0Z"/><path class="cls-2" d="M97.05,179.94a34.22,34.22,0,0,1,.22-68.43,34.22,34.22,0,1,1-.22,68.43Zm.09-55.85a21.69,21.69,0,0,0-21.9,21.79,22.27,22.27,0,0,0,21.7,21.86,21.87,21.87,0,0,0,21.94-21.83A21.38,21.38,0,0,0,97.14,124.09Z"/><path class="cls-2" d="M216.17,145.87A33.7,33.7,0,0,1,182,179.93a34.21,34.21,0,1,1,34.2-34.06Zm-33.92-21.78c-12.4,0-21.91,9.37-21.9,21.64a21.82,21.82,0,0,0,21.76,22A22.34,22.34,0,0,0,204,145.67,21.73,21.73,0,0,0,182.25,124.09Z"/><path class="cls-2" d="M267.15,179.92a33.78,33.78,0,0,1-34.26-33.64c0-19.22,14.87-34.66,33.62-34.77a34,34,0,0,1,34.63,33.75C301.23,164.8,286.49,179.84,267.15,179.92Zm-.08-55.83A22,22,0,0,0,245,145.85c.06,11.79,10.35,22,22.17,21.89,11.62-.06,21.72-10.11,21.9-21.8C289.25,134.08,279.2,124.1,267.07,124.09Z"/><path class="cls-2" d="M139.61,255.92a32.82,32.82,0,0,1-33.19-33.52,33.35,33.35,0,0,1,33.28-33.3c18.31,0,33.67,15.36,33.6,33.59A33.25,33.25,0,0,1,139.61,255.92Zm21.1-33.45a20.77,20.77,0,0,0-21.08-20.77,21.19,21.19,0,0,0-21,21,21.53,21.53,0,0,0,21,21.14A21.23,21.23,0,0,0,160.71,222.47Z"/><path class="cls-2" d="M224.47,255.92a32.86,32.86,0,0,1-33.4-33.32,33.35,33.35,0,1,1,66.7-.11A32.88,32.88,0,0,1,224.47,255.92Zm.07-54.23a21.26,21.26,0,0,0-21.34,20.75c-.25,11.28,9.82,21.39,21.27,21.37a21.57,21.57,0,0,0,21.11-21.11A21.16,21.16,0,0,0,224.54,201.69Z"/><path class="cls-2" d="M164.2,82.8a24.51,24.51,0,1,1-49,.15c-.11-13.28,11.36-24.73,24.67-24.65A24.81,24.81,0,0,1,164.2,82.8Zm-7.3.62a17.36,17.36,0,0,0-16.82-17.83,17.26,17.26,0,1,0-.7,34.51A17.19,17.19,0,0,0,156.9,83.42Z"/><path class="cls-2" d="M200.16,82.69a24.27,24.27,0,1,1,24.35,24.7C210.82,107.45,200.13,96.61,200.16,82.69Zm23.89,17.41a17.46,17.46,0,0,0,17.74-17c.2-9.07-7.83-17.32-17-17.46a17.25,17.25,0,1,0-.74,34.5Z"/><text class="cls-3" transform="translate(84.98 427.55)"><tspan class="cls-4">T</tspan><tspan x="44.67" y="0">YP 2</tspan></text></g></g></svg>