<svg xmlns="http://www.w3.org/2000/svg" viewBox="0 0 360.75 664.45"><defs><style>.cls-1{fill:none;}.cls-1,.cls-3{stroke:#fff;stroke-miterlimit:10;stroke-width:9px;}.cls-2{fill:#fff;}</style></defs><g id="Ebene_2" data-name="Ebene 2"><g id="Ebene_1-2" data-name="Ebene 1"><path d="M52.25,623.26H37.32v40.5h-12v-40.5H10.66V614H52.25Z"/><path d="M76.08,635.6,85.24,614h13l-16,31.89v17.87H70V645.89L54,614H66.88Z"/><path d="M113.81,646.88v16.88h-12V614h19.85a23.11,23.11,0,0,1,10.1,2.1,15.9,15.9,0,0,1,6.81,6,16.4,16.4,0,0,1,2.41,8.8,14.38,14.38,0,0,1-5.22,11.64q-5.21,4.37-14.3,4.36Zm0-9.26h7.86a7.39,7.39,0,0,0,5.32-1.75,6.47,6.47,0,0,0,1.83-4.92,8,8,0,0,0-1.88-5.57,6.69,6.69,0,0,0-5.13-2.12h-8Z"/><path d="M172.19,663.76H160.64V627l-11.35,3.31v-8.75L171.13,614h1.06Z"/><path d="M209.89,646.74H189.35v-8.88h20.54Z"/><path d="M259.66,646.91a18.15,18.15,0,0,1-2.81,9.18,16.81,16.81,0,0,1-7.19,6.17,24.46,24.46,0,0,1-10.58,2.19q-9.81,0-15.45-6.39T218,640v-2.46a30.05,30.05,0,0,1,2.55-12.8,19.33,19.33,0,0,1,7.33-8.48,20.48,20.48,0,0,1,11.07-3q9.06,0,14.56,4.77t6.26,13.14h-12c-.09-3-.86-5.21-2.29-6.53s-3.63-2-6.57-2a7.17,7.17,0,0,0-6.56,3.35q-2.08,3.35-2.19,10.7v3.52q0,8,2,11.38c1.34,2.28,3.63,3.42,6.89,3.42q4.14,0,6.32-1.95t2.33-6.19Z"/><path d="M305.59,646.91a18.14,18.14,0,0,1-2.8,9.18,16.93,16.93,0,0,1-7.19,6.17A24.49,24.49,0,0,1,285,664.45q-9.81,0-15.45-6.39t-5.64-18v-2.46a30.05,30.05,0,0,1,2.55-12.8,19.27,19.27,0,0,1,7.33-8.48,20.48,20.48,0,0,1,11.07-3q9.06,0,14.56,4.77t6.26,13.14h-12q-.14-4.55-2.29-6.53t-6.56-2a7.17,7.17,0,0,0-6.56,3.35q-2.08,3.35-2.19,10.7v3.52q0,8,2,11.38t6.89,3.42c2.76,0,4.86-.65,6.32-1.95s2.24-3.36,2.33-6.19Z"/><path d="M336.94,650.54a4.92,4.92,0,0,0-1.86-4.1,23.35,23.35,0,0,0-6.55-3.05,62.17,62.17,0,0,1-7.66-3q-9.67-4.76-9.67-13.05a11.69,11.69,0,0,1,2.41-7.3,15.65,15.65,0,0,1,6.82-4.93,26.59,26.59,0,0,1,9.91-1.76,23.11,23.11,0,0,1,9.62,1.92,15.29,15.29,0,0,1,6.62,5.45,14.24,14.24,0,0,1,2.35,8.08H337a6,6,0,0,0-1.86-4.71,7.24,7.24,0,0,0-5-1.68,8.22,8.22,0,0,0-5.08,1.42,4.18,4.18,0,0,0,.19,7.08,26.26,26.26,0,0,0,7.21,3.21,44.94,44.94,0,0,1,8.48,3.57q8.07,4.65,8.06,12.82A12.14,12.14,0,0,1,344,660.72q-4.92,3.74-13.5,3.73a26.89,26.89,0,0,1-10.95-2.17,16.59,16.59,0,0,1-7.39-5.95,15.52,15.52,0,0,1-2.47-8.7h12c0,2.67.69,4.63,2.07,5.9s3.61,1.89,6.71,1.89a7.69,7.69,0,0,0,4.7-1.28A4.22,4.22,0,0,0,336.94,650.54Z"/><path d="M286.41,377.29H211.53c0-5.18-.06-10.12-.06-15.15-.13-3.21.77-4.37,4.22-5.1,97.95-20.81,159.87-112.3,142-209.56C340.44,53.58,251.94-11,157.37,1.57,117.74,6.85,83,23.14,54.79,51.6,7.59,99.21-10.2,156.69,5.66,221.72,23.59,295.2,72.14,339.69,145.57,357c3.51.83,4.11,2.1,4.11,5.2,0,5.11-.05,10-.05,15.06H74.34A70.53,70.53,0,0,0,4,447.61V480a70.53,70.53,0,0,0,70.32,70.32H286.41A70.53,70.53,0,0,0,356.73,480V447.61A70.53,70.53,0,0,0,286.41,377.29Z"/><rect class="cls-1" x="32.48" y="400.53" width="295.79" height="126.6" rx="50.97"/><path class="cls-2" d="M250.52,505.55c-21.8.86-44.05-16.56-44.55-44.06-.43-24.4,20-44.39,44.37-44.42A44.63,44.63,0,0,1,295,461.31C295.11,485.63,275.12,505.51,250.52,505.55Zm31.06-43.91A31,31,0,0,0,251,430.52c-17.81-.08-31.81,13.56-31.79,31,0,16.88,14.63,31.44,31.38,31.26S281.52,478.3,281.58,461.64Z"/><path class="cls-2" d="M154.26,461.7c-.1,24.95-19.36,44-44.41,43.85a44,44,0,0,1-44.08-44.43c.06-24.62,20.13-44.2,45.15-44C135.05,417.23,154.35,437.11,154.26,461.7Zm-75-.15c0,17,14.47,31.5,31.19,31.21s30.9-14.66,31.07-31.17c.17-16.82-14.19-31.07-31.32-31.07C92.66,430.51,79.2,444,79.22,461.55Z"/><path class="cls-3" d="M181,31.27c-82.2-1.48-148.28,67.24-149.8,146-1.65,85.85,68.11,151.39,145.6,153.19,86.28,2,152.51-68.16,153.91-146.76C332.21,98.73,262.1,29.57,181,31.27Z"/><path class="cls-2" d="M126.1,79.57C146,80.68,163.73,95,163.86,117.74c.13,21.67-16.46,37.26-37.67,38.09-20.17.78-38.31-17.74-38.39-38S105.87,79.55,126.1,79.57Zm-.44,61.67c13.12,0,23.66-10.12,23.74-22.9.09-13.52-10.37-24.27-23.53-24.18s-23.94,11-23.78,23.75A23.73,23.73,0,0,0,125.66,141.24Z"/><path class="cls-2" d="M239.81,79.55c19.86,1.1,37.63,15.39,37.76,38.17.12,21.67-16.47,37.26-37.67,38.08-20.17.79-38.31-17.73-38.4-38S219.58,79.53,239.81,79.55Zm-.44,61.66c13.12,0,23.65-10.11,23.74-22.89.08-13.53-10.37-24.27-23.54-24.19-13,.09-23.94,11-23.77,23.75A23.72,23.72,0,0,0,239.37,141.21Z"/><path class="cls-2" d="M180.86,230.8c19.86,1.1,37.63,15.39,37.76,38.17.12,21.67-16.47,37.26-37.67,38.08-20.17.79-38.31-17.73-38.4-38S160.63,230.78,180.86,230.8Zm-.44,61.66c13.12.05,23.65-10.11,23.74-22.89.08-13.53-10.37-24.27-23.54-24.19-13,.09-23.94,11-23.77,23.75A23.72,23.72,0,0,0,180.42,292.46Z"/><path class="cls-2" d="M93.85,187.39A26.85,26.85,0,0,1,120.53,214c0,14.3-12.28,27.19-26.71,26.8-14.7-.41-26.08-11-26.85-26.79C66.29,200.15,79.59,187.43,93.85,187.39ZM76.33,213.88a17.3,17.3,0,0,0,17.42,17.67,17.82,17.82,0,0,0,18-17.8,18.09,18.09,0,0,0-17.89-17.58A17.62,17.62,0,0,0,76.33,213.88Z"/><path class="cls-2" d="M271.63,187.39A26.84,26.84,0,0,1,298.31,214c0,14.3-12.28,27.19-26.71,26.8-14.69-.41-26.08-11-26.85-26.79C244.08,200.15,257.37,187.43,271.63,187.39Zm-17.52,26.49a17.3,17.3,0,0,0,17.43,17.67,17.83,17.83,0,0,0,18-17.8,18.09,18.09,0,0,0-17.89-17.58A17.63,17.63,0,0,0,254.11,213.88Z"/></g></g></svg>