<svg xmlns="http://www.w3.org/2000/svg" viewBox="0 0 360.06 583.83"><defs><style>.cls-1{fill:none;}.cls-1,.cls-3{stroke:#fff;stroke-miterlimit:10;stroke-width:9px;}.cls-2{fill:#fff;}</style></defs><g id="Ebene_2" data-name="Ebene 2"><g id="Ebene_1-2" data-name="Ebene 1"><path d="M286.06,296.68H258.17c65.38-31.5,107.67-102.05,101.25-176.28a181.85,181.85,0,0,0-33.21-90.94c-7-9.94-14.93-18.65-26.59-23.28A79.55,79.55,0,0,0,270.2.06Q225.13,0,180.07,0c-28.74,0-57.48-.11-86.23.09A105.19,105.19,0,0,0,74.12,2C62.5,4.36,51.18,8.46,43.5,17.77,3.11,66.69-9.65,122.37,7.31,183.42a177.2,177.2,0,0,0,94.83,113.26H74A70.52,70.52,0,0,0,3.68,367v32.42A70.53,70.53,0,0,0,74,469.74H286.06a70.53,70.53,0,0,0,70.32-70.32V367A70.52,70.52,0,0,0,286.06,296.68Z"/><rect class="cls-1" x="32.14" y="319.91" width="295.79" height="126.6" rx="50.97"/><path class="cls-2" d="M250.17,424.93c-21.8.86-44-16.56-44.54-44.06-.44-24.4,20-44.39,44.37-44.41a44.62,44.62,0,0,1,44.64,44.23C294.76,405,274.78,424.89,250.17,424.93ZM281.24,381a31,31,0,0,0-30.56-31.12c-17.8-.07-31.8,13.57-31.79,31,0,16.88,14.64,31.45,31.38,31.26S281.18,397.68,281.24,381Z"/><path class="cls-2" d="M153.92,381.08c-.1,24.95-19.37,44-44.41,43.85A44,44,0,0,1,65.42,380.5c.07-24.62,20.14-44.2,45.15-44C134.7,336.61,154,356.49,153.92,381.08Zm-75-.15c0,17,14.48,31.5,31.19,31.21S141,397.48,141.13,381c.17-16.82-14.19-31.06-31.31-31.07A30.48,30.48,0,0,0,78.87,380.93Z"/><path class="cls-3" d="M180.67,25.86q-36.79,0-73.6,0a100.92,100.92,0,0,0-13.48.63c-13.22,1.82-25.48,6.3-33.75,17.28C31.26,81.72,21.61,124.27,32.18,170.52,50.48,250.63,128.9,301,209.61,285.34c66.9-13,118.1-71,122.2-138.87,2.09-34.53-6.73-66.17-25.73-95.18-11.54-17.62-27.72-25.39-48.22-25.42Q219.27,25.81,180.67,25.86Z"/><path class="cls-2" d="M95,172.94a34.22,34.22,0,0,1,.21-68.43A34.22,34.22,0,1,1,95,172.94Zm.09-55.85a21.7,21.7,0,0,0-21.91,21.79A22.28,22.28,0,0,0,94.9,160.74a21.87,21.87,0,0,0,21.94-21.83A21.39,21.39,0,0,0,95.1,117.09Z"/><path class="cls-2" d="M214.12,138.87a33.69,33.69,0,0,1-34.19,34.06,34.21,34.21,0,1,1,34.19-34.06Zm-33.91-21.78c-12.41,0-21.91,9.37-21.91,21.64a21.83,21.83,0,0,0,21.76,22A22.34,22.34,0,0,0,202,138.67,21.73,21.73,0,0,0,180.21,117.09Z"/><path class="cls-2" d="M265.1,172.92a33.76,33.76,0,0,1-34.25-33.64c-.06-19.22,14.87-34.66,33.61-34.77a34,34,0,0,1,34.63,33.75C299.19,157.8,284.44,172.84,265.1,172.92ZM265,117.09A21.94,21.94,0,0,0,243,138.85c.05,11.79,10.34,22,22.16,21.89,11.63-.06,21.72-10.1,21.91-21.8C287.2,127.08,277.16,117.1,265,117.09Z"/><path class="cls-2" d="M137.57,248.92a32.84,32.84,0,0,1-33.2-33.52,33.36,33.36,0,0,1,33.28-33.3c18.31,0,33.68,15.36,33.6,33.59A33.24,33.24,0,0,1,137.57,248.92Zm21.09-33.45a20.76,20.76,0,0,0-21.07-20.77,21.17,21.17,0,0,0-21,21,21.52,21.52,0,0,0,21,21.14A21.22,21.22,0,0,0,158.66,215.47Z"/><path class="cls-2" d="M222.42,248.92A32.86,32.86,0,0,1,189,215.6a33.35,33.35,0,1,1,66.7-.11A32.89,32.89,0,0,1,222.42,248.92Zm.08-54.23a21.25,21.25,0,0,0-21.34,20.75c-.26,11.28,9.81,21.39,21.27,21.37a21.56,21.56,0,0,0,21.1-21.11A21.14,21.14,0,0,0,222.5,194.69Z"/><path class="cls-2" d="M162.15,75.8a24.5,24.5,0,1,1-49,.15C113,62.67,124.5,51.22,137.81,51.3A24.8,24.8,0,0,1,162.15,75.8Zm-7.29.62c.12-9.71-7.41-17.69-16.82-17.83a17.26,17.26,0,1,0-.7,34.51C146.84,93.2,154.75,85.68,154.86,76.42Z"/><path class="cls-2" d="M198.11,75.69a24.27,24.27,0,1,1,24.35,24.7C208.77,100.45,198.08,89.61,198.11,75.69ZM222,93.1a17.46,17.46,0,0,0,17.74-17c.21-9.07-7.83-17.32-17-17.46A17.25,17.25,0,1,0,222,93.1Z"/><path d="M154.37,566.3a18.24,18.24,0,0,1-2.8,9.17,16.83,16.83,0,0,1-7.2,6.17,24.46,24.46,0,0,1-10.58,2.19q-9.81,0-15.45-6.39t-5.64-18.05v-2.46a30.11,30.11,0,0,1,2.55-12.8,19.25,19.25,0,0,1,7.33-8.47,20.41,20.41,0,0,1,11.08-3q9,0,14.56,4.77t6.25,13.14h-12c-.09-3-.86-5.2-2.29-6.52s-3.63-2-6.56-2a7.18,7.18,0,0,0-6.57,3.35q-2.09,3.36-2.18,10.7v3.52q0,8,2,11.38t6.88,3.42q4.14,0,6.33-1.95c1.45-1.29,2.23-3.36,2.32-6.18Z"/><path d="M200.31,566.3a18.15,18.15,0,0,1-2.81,9.17,16.8,16.8,0,0,1-7.19,6.17,24.49,24.49,0,0,1-10.58,2.19q-9.81,0-15.45-6.39t-5.64-18.05v-2.46a30.11,30.11,0,0,1,2.55-12.8,19.19,19.19,0,0,1,7.33-8.47,20.4,20.4,0,0,1,11.07-3q9.06,0,14.56,4.77t6.26,13.14h-12q-.15-4.55-2.29-6.52t-6.57-2a7.17,7.17,0,0,0-6.56,3.35q-2.09,3.36-2.19,10.7v3.52q0,8,2,11.38c1.34,2.28,3.63,3.42,6.89,3.42,2.76,0,4.86-.65,6.32-1.95s2.24-3.36,2.33-6.18Z"/><path d="M231.65,569.92a4.94,4.94,0,0,0-1.86-4.1,23.39,23.39,0,0,0-6.55-3,63.65,63.65,0,0,1-7.66-3q-9.66-4.74-9.67-13.05a11.69,11.69,0,0,1,2.41-7.3,15.56,15.56,0,0,1,6.82-4.92,26.59,26.59,0,0,1,9.91-1.76,23.27,23.27,0,0,1,9.62,1.91,15.36,15.36,0,0,1,6.62,5.45,14.28,14.28,0,0,1,2.36,8.09h-12a6,6,0,0,0-1.86-4.72,7.23,7.23,0,0,0-5-1.67,8.17,8.17,0,0,0-5.08,1.42,4.17,4.17,0,0,0,.19,7.07,25.66,25.66,0,0,0,7.21,3.21,44.26,44.26,0,0,1,8.48,3.58q8.07,4.63,8.07,12.81a12.17,12.17,0,0,1-4.93,10.26q-4.92,3.72-13.5,3.72a26.72,26.72,0,0,1-10.95-2.17,16.51,16.51,0,0,1-7.38-5.95,15.39,15.39,0,0,1-2.48-8.69h12c0,2.66.69,4.63,2.07,5.89s3.61,1.9,6.71,1.9a7.76,7.76,0,0,0,4.7-1.28A4.25,4.25,0,0,0,231.65,569.92Z"/></g></g></svg>