<svg xmlns="http://www.w3.org/2000/svg" viewBox="0 0 360.75 491.77"><defs><style>.cls-1{stroke:#fff;stroke-miterlimit:10;stroke-width:9px;}.cls-2{fill:#fff;}</style></defs><g id="Ebene_2" data-name="Ebene 2"><g id="Ebene_1-2" data-name="Ebene 1"><path d="M211.53,378.25h-61.9c0-5.46-.13-10.74.05-16,.1-3.1-.6-4.37-4.11-5.2C72.14,339.69,23.59,295.2,5.66,221.72-10.2,156.69,7.59,99.21,54.79,51.6c28.21-28.46,63-44.75,102.58-50,94.57-12.6,183.07,52,200.32,145.91,17.87,97.26-44.05,188.75-142,209.56-3.45.73-4.35,1.89-4.22,5.1C211.69,367.42,211.53,372.71,211.53,378.25Z"/><path class="cls-1" d="M181,31.27c-82.2-1.48-148.28,67.24-149.8,146-1.65,85.85,68.11,151.39,145.6,153.19,86.28,2,152.51-68.16,153.91-146.76C332.21,98.73,262.1,29.57,181,31.27Z"/><path class="cls-2" d="M126.1,79.57C146,80.68,163.73,95,163.86,117.74c.12,21.67-16.46,37.26-37.67,38.09-20.17.78-38.31-17.74-38.39-38S105.87,79.55,126.1,79.57Zm-.44,61.67c13.12,0,23.66-10.12,23.74-22.9.09-13.52-10.37-24.27-23.53-24.19s-23.94,11-23.78,23.76A23.73,23.73,0,0,0,125.66,141.24Z"/><path class="cls-2" d="M239.81,79.55c19.86,1.1,37.63,15.38,37.76,38.16.12,21.68-16.47,37.27-37.67,38.09-20.17.79-38.31-17.73-38.4-38S219.58,79.53,239.81,79.55Zm-.44,61.66c13.12,0,23.65-10.11,23.74-22.89.08-13.53-10.37-24.27-23.54-24.19-13,.09-23.94,11-23.77,23.75A23.72,23.72,0,0,0,239.37,141.21Z"/><path class="cls-2" d="M180.86,230.8c19.86,1.1,37.63,15.39,37.76,38.17.12,21.67-16.47,37.26-37.67,38.08-20.17.79-38.31-17.73-38.4-38S160.63,230.78,180.86,230.8Zm-.44,61.66c13.12.05,23.65-10.11,23.74-22.89.08-13.53-10.37-24.27-23.54-24.19-13,.09-23.94,11-23.77,23.75A23.72,23.72,0,0,0,180.42,292.46Z"/><path class="cls-2" d="M93.85,187.39A26.85,26.85,0,0,1,120.53,214c0,14.3-12.28,27.19-26.71,26.8-14.7-.41-26.08-11-26.85-26.79C66.29,200.15,79.59,187.43,93.85,187.39ZM76.33,213.88a17.3,17.3,0,0,0,17.42,17.67,17.82,17.82,0,0,0,18-17.81,18.09,18.09,0,0,0-17.89-17.57A17.62,17.62,0,0,0,76.33,213.88Z"/><path class="cls-2" d="M271.63,187.39A26.84,26.84,0,0,1,298.31,214c0,14.3-12.28,27.19-26.71,26.8-14.69-.41-26.08-11-26.85-26.79C244.08,200.15,257.37,187.43,271.63,187.39Zm-17.52,26.49a17.3,17.3,0,0,0,17.43,17.67,17.83,17.83,0,0,0,18-17.81,18.09,18.09,0,0,0-17.89-17.57A17.63,17.63,0,0,0,254.11,213.88Z"/><path d="M127.12,451.27H112.19v40.5h-12v-40.5H85.53V442h41.59Z"/><path d="M151,463.6l9.16-21.6h12.95l-16,31.89v17.88H144.86V473.89l-16-31.89h12.88Z"/><path d="M188.68,474.88v16.89h-12V442h19.86a23.14,23.14,0,0,1,10.1,2.1,15.84,15.84,0,0,1,6.8,6,16.29,16.29,0,0,1,2.41,8.8,14.4,14.4,0,0,1-5.21,11.64q-5.2,4.35-14.3,4.35Zm0-9.26h7.86a7.43,7.43,0,0,0,5.32-1.74,6.47,6.47,0,0,0,1.83-4.92,8,8,0,0,0-1.88-5.57,6.67,6.67,0,0,0-5.13-2.12h-8Z"/><path d="M264.49,491.77H252.94V455l-11.35,3.32v-8.75L263.43,442h1.06Z"/></g></g></svg>