<svg xmlns="http://www.w3.org/2000/svg" viewBox="0 0 327.03 427.99"><defs><style>.cls-1{fill:#fff;}.cls-2{stroke:#fff;stroke-miterlimit:10;stroke-width:14.66px;}</style></defs><g id="Ebene_2" data-name="Ebene 2"><g id="Ebene_1-2" data-name="Ebene 1"><path class="cls-1" d="M222.06,99a22.06,22.06,0,0,1,22.31,22.7c-.19,11.9-11.43,23-23,22.74S198.52,132.57,198.73,121C199,108.71,209.37,98.87,222.06,99Z"/><path class="cls-1" d="M105.68,99c12.85.15,22.22,9.86,22,22.82-.18,12.21-11.1,23-22.87,22.63S81.91,132.35,82.17,121C82.45,108.94,93.25,98.84,105.68,99Z"/><path d="M308.45,144.25A144.26,144.26,0,1,0,148.63,287.67v26.22h31.13V287.67A144.28,144.28,0,0,0,308.45,144.25Z"/><circle class="cls-2" cx="164.2" cy="144.25" r="119.62"/><path class="cls-1" d="M109.83,90.76a30.94,30.94,0,1,0,30.94,30.94A30.95,30.95,0,0,0,109.83,90.76Zm0,51.49a20.55,20.55,0,1,1,20.54-20.55A20.55,20.55,0,0,1,109.83,142.25Z"/><path class="cls-1" d="M221.55,90.76a30.94,30.94,0,1,0,30.94,30.94A30.95,30.95,0,0,0,221.55,90.76Zm0,51.49a20.55,20.55,0,1,1,20.54-20.55A20.55,20.55,0,0,1,221.55,142.25Z"/><path class="cls-1" d="M165.69,172.59a30.95,30.95,0,1,0,30.94,30.95A31,31,0,0,0,165.69,172.59Zm0,51.49a20.55,20.55,0,1,1,20.54-20.54A20.55,20.55,0,0,1,165.69,224.08Z"/><path d="M41.66,410.45a18.14,18.14,0,0,1-2.8,9.18,17,17,0,0,1-7.19,6.17A24.49,24.49,0,0,1,21.09,428q-9.81,0-15.45-6.39T0,403.55v-2.46a30.05,30.05,0,0,1,2.55-12.8,19.22,19.22,0,0,1,7.33-8.48,20.48,20.48,0,0,1,11.07-3q9.06,0,14.56,4.77t6.26,13.14h-12q-.14-4.55-2.29-6.53t-6.56-2a7.17,7.17,0,0,0-6.56,3.35q-2.09,3.35-2.19,10.7v3.52q0,8,2,11.38t6.89,3.42c2.76,0,4.86-.65,6.32-1.95s2.23-3.36,2.33-6.19Z"/><path d="M78.2,406.18H59.34v11.89H81.62v9.23H47.34V377.54H81.69v9.26H59.34v10.49H78.2Z"/><path d="M117.37,406.18H98.51v11.89h22.28v9.23H86.51V377.54h34.35v9.26H98.51v10.49h18.86Z"/><path d="M147.66,410.28H127.11v-8.89h20.55Z"/><path d="M157.16,427.3V377.54H175q9.61,0,14.62,3.52t5,10.22a11.86,11.86,0,0,1-1.77,6.59,10.38,10.38,0,0,1-5.23,4,10.49,10.49,0,0,1,6,3.83,11.11,11.11,0,0,1,2.08,6.83q0,7.32-4.63,11t-13.72,3.74Zm12-29h6.26q3.93,0,5.61-1.43a5.15,5.15,0,0,0,1.67-4.15c0-2.11-.6-3.62-1.81-4.55s-3.16-1.38-5.85-1.38h-5.88Zm0,7.87v11.92H177a7.5,7.5,0,0,0,5-1.48,5.21,5.21,0,0,0,1.74-4.19q0-6.22-6.19-6.25Z"/><path d="M214.31,418.07h20.88v9.23H202.31V377.54h12Z"/><path d="M269.16,418H252.72l-2.87,9.29H237l18.25-49.76h11.28L285,427.3H272.07Zm-13.56-9.27h10.69l-5.36-17.26Z"/><path d="M327,377.54v32.57a18.76,18.76,0,0,1-2.36,9.59,15.31,15.31,0,0,1-6.77,6.17A23.86,23.86,0,0,1,307.48,428q-9.09,0-14.32-4.72t-5.33-12.92V377.54h12.06v33q.21,8.16,7.59,8.17a7.38,7.38,0,0,0,5.64-2.05c1.28-1.37,1.91-3.59,1.91-6.67v-32.5Z"/></g></g></svg>